<svg xmlns="http://www.w3.org/2000/svg" style="display: none;"><symbol id="lock" viewBox="0 0 471.7 471.7"><title>lock</title><g> <g> <path d="M360.8,200.6v-74.7c0.2-33.8-13.3-66.3-37.4-90C300.1,12.7,269.6,0,237.3,0c-0.5,0-1.1,0-1.6,0 c-68.9,0.1-124.9,56.5-124.9,125.9v74.7c-26,3.1-45,24.9-45,51.3v167.8c0,28.5,22.8,52,51.3,52h237.5c28.5,0,51.3-23.5,51.3-52 V251.9C405.8,225.6,386.8,203.7,360.8,200.6z M130.7,125.9h0.1c0-58.4,47.1-106.2,105-106.2h0.1c27.5-0.1,53.9,10.8,73.4,30.2 c20.3,20.1,31.6,47.5,31.4,76v74.8h-22v-74.8c0.2-22.7-8.8-44.5-24.9-60.5c-15.2-15.2-35.8-23.8-57.3-23.8h-0.6 c-46,0-83.2,37.8-83.2,84.2v74.9h-22V125.9z M298.8,125.9v74.8h-126v-74.8c0-35.4,28.2-64.2,63.2-64.2h0.6 c16.2,0,31.8,6.5,43.3,18C292.1,91.9,299,108.6,298.8,125.9z M386.8,420L386.8,420c0,17.5-14.2,31.7-31.7,31.7H117.5 c-17.5,0-31.7-14.2-31.7-31.7V252.4c0-17.5,14.2-31.7,31.7-31.7h237.6c17.5,0,31.7,14.2,31.7,31.7V420z"/> </g> </g><g> <g> <path d="M270.4,330c-4.4-15.5-18.5-26.1-34.6-26.1c-19.9,0-36.1,16.1-36.1,36.1c0,16.1,10.6,30.2,26.1,34.6v28c0,5.5,4.5,10,10,10 s10-4.5,10-10v-28C264.9,369.1,276,349.1,270.4,330z M235.8,356c-8.9,0-16.1-7.2-16.1-16.1c0-8.9,7.2-16.1,16.1-16.1 c8.9,0,16.1,7.2,16.1,16.1C251.9,348.8,244.7,356,235.8,356z"/> </g> </g></symbol><symbol id="supermarket" viewBox="0 -31 512.00033 512"><title>supermarket</title><path d="m166 300.003906h271.003906c6.710938 0 12.597656-4.4375 14.414063-10.882812l60.003906-210.003906c1.289063-4.527344.40625-9.390626-2.433594-13.152344-2.84375-3.75-7.265625-5.964844-11.984375-5.964844h-365.632812l-10.722656-48.25c-1.523438-6.871094-7.617188-11.75-14.648438-11.75h-91c-8.289062 0-15 6.710938-15 15 0 8.292969 6.710938 15 15 15h78.960938l54.167968 243.75c-15.9375 6.929688-27.128906 22.792969-27.128906 41.253906 0 24.8125 20.1875 45 45 45h271.003906c8.292969 0 15-6.707031 15-15 0-8.289062-6.707031-15-15-15h-271.003906c-8.261719 0-15-6.722656-15-15s6.738281-15 15-15zm0 0"/><path d="m151 405.003906c0 24.816406 20.1875 45 45.003906 45 24.8125 0 45-20.183594 45-45 0-24.8125-20.1875-45-45-45-24.816406 0-45.003906 20.1875-45.003906 45zm0 0"/><path d="m362.003906 405.003906c0 24.816406 20.1875 45 45 45 24.816406 0 45-20.183594 45-45 0-24.8125-20.183594-45-45-45-24.8125 0-45 20.1875-45 45zm0 0"/></symbol><symbol id="instagram" viewBox="0 0 512 512"><title>instagram</title><linearGradient id="SVGID_1_" gradientUnits="userSpaceOnUse" x1="-46.0041" y1="634.1208" x2="-32.9334" y2="647.1917" gradientTransform="matrix(32 0 0 -32 1519 20757)"> <stop offset="0" style="stop-color:#FFC107"/> <stop offset="0.507" style="stop-color:#F44336"/> <stop offset="0.99" style="stop-color:#9C27B0"/> </linearGradient><path style="fill:url(#SVGID_1_);" d="M352,0H160C71.648,0,0,71.648,0,160v192c0,88.352,71.648,160,160,160h192 c88.352,0,160-71.648,160-160V160C512,71.648,440.352,0,352,0z M464,352c0,61.76-50.24,112-112,112H160c-61.76,0-112-50.24-112-112 V160C48,98.24,98.24,48,160,48h192c61.76,0,112,50.24,112,112V352z"/><linearGradient id="SVGID_2_" gradientUnits="userSpaceOnUse" x1="-42.2971" y1="637.8279" x2="-36.6404" y2="643.4846" gradientTransform="matrix(32 0 0 -32 1519 20757)"> <stop offset="0" style="stop-color:#FFC107"/> <stop offset="0.507" style="stop-color:#F44336"/> <stop offset="0.99" style="stop-color:#9C27B0"/> </linearGradient><path style="fill:url(#SVGID_2_);" d="M256,128c-70.688,0-128,57.312-128,128s57.312,128,128,128s128-57.312,128-128 S326.688,128,256,128z M256,336c-44.096,0-80-35.904-80-80c0-44.128,35.904-80,80-80s80,35.872,80,80 C336,300.096,300.096,336,256,336z"/><linearGradient id="SVGID_3_" gradientUnits="userSpaceOnUse" x1="-35.5456" y1="644.5793" x2="-34.7919" y2="645.3331" gradientTransform="matrix(32 0 0 -32 1519 20757)"> <stop offset="0" style="stop-color:#FFC107"/> <stop offset="0.507" style="stop-color:#F44336"/> <stop offset="0.99" style="stop-color:#9C27B0"/> </linearGradient><circle style="fill:url(#SVGID_3_);" cx="393.6" cy="118.4" r="17.056"/></symbol><symbol id="facebook" viewBox="0 0 24 24"><title>facebook</title><path d="m15.997 3.985h2.191v-3.816c-.378-.052-1.678-.169-3.192-.169-3.159 0-5.323 1.987-5.323 5.639v3.361h-3.486v4.266h3.486v10.734h4.274v-10.733h3.345l.531-4.266h-3.877v-2.939c.001-1.233.333-2.077 2.051-2.077z"/></symbol><symbol id="linkedin" viewBox="0 0 512 512"><title>linkedin</title><circle style="fill:#2196F3;" cx="64" cy="64" r="64"/><path style="fill:#2196F3;" d="M10.667,170.667h106.667c5.891,0,10.667,4.776,10.667,10.667v320 c0,5.891-4.776,10.667-10.667,10.667H10.667C4.776,512,0,507.224,0,501.333v-320C0,175.442,4.776,170.667,10.667,170.667z"/><path style="fill:#2196F3;" d="M435.2,155.989c-46.708-13.31-96.923-4.98-136.832,22.699c-1.211-4.732-5.483-8.037-10.368-8.021 H181.333c-5.891,0-10.667,4.776-10.667,10.667v320c0,5.891,4.776,10.667,10.667,10.667H288c5.891,0,10.667-4.776,10.667-10.667 V271.36c15.414-14.524,37.701-19.113,57.6-11.861c18.7,9.237,29.74,29.075,27.733,49.835v192c0,5.891,4.776,10.667,10.667,10.667 h106.667c5.891,0,10.667-4.776,10.667-10.667V287.851C510.784,200.192,469.547,167.744,435.2,155.989z"/></symbol><symbol id="up-arrow" viewBox="0 0 213.333 213.333"><title>up-arrow</title><polygon points="106.667,53.333 0,160 213.333,160 "/></symbol><symbol id="visa" viewBox="0 0 504 504"><title>visa</title><polygon style="fill:#3C58BF;" points="184.8,324.4 210.4,180.4 250.4,180.4 225.6,324.4 "/><polygon style="fill:#293688;" points="184.8,324.4 217.6,180.4 250.4,180.4 225.6,324.4 "/><path style="fill:#3C58BF;" d="M370.4,182c-8-3.2-20.8-6.4-36.8-6.4c-40,0-68.8,20-68.8,48.8c0,21.6,20,32.8,36,40 s20.8,12,20.8,18.4c0,9.6-12.8,14.4-24,14.4c-16,0-24.8-2.4-38.4-8l-5.6-2.4l-5.6,32.8c9.6,4,27.2,8,45.6,8 c42.4,0,70.4-20,70.4-50.4c0-16.8-10.4-29.6-34.4-40c-14.4-7.2-23.2-11.2-23.2-18.4c0-6.4,7.2-12.8,23.2-12.8 c13.6,0,23.2,2.4,30.4,5.6l4,1.6L370.4,182L370.4,182z"/><path style="fill:#293688;" d="M370.4,182c-8-3.2-20.8-6.4-36.8-6.4c-40,0-61.6,20-61.6,48.8c0,21.6,12.8,32.8,28.8,40 s20.8,12,20.8,18.4c0,9.6-12.8,14.4-24,14.4c-16,0-24.8-2.4-38.4-8l-5.6-2.4l-5.6,32.8c9.6,4,27.2,8,45.6,8 c42.4,0,70.4-20,70.4-50.4c0-16.8-10.4-29.6-34.4-40c-14.4-7.2-23.2-11.2-23.2-18.4c0-6.4,7.2-12.8,23.2-12.8 c13.6,0,23.2,2.4,30.4,5.6l4,1.6L370.4,182L370.4,182z"/><path style="fill:#3C58BF;" d="M439.2,180.4c-9.6,0-16.8,0.8-20.8,10.4l-60,133.6h43.2l8-24h51.2l4.8,24H504l-33.6-144H439.2z M420.8,276.4c2.4-7.2,16-42.4,16-42.4s3.2-8.8,5.6-14.4l2.4,13.6c0,0,8,36,9.6,44h-33.6V276.4z"/><path style="fill:#293688;" d="M448.8,180.4c-9.6,0-16.8,0.8-20.8,10.4l-69.6,133.6h43.2l8-24h51.2l4.8,24H504l-33.6-144H448.8z M420.8,276.4c3.2-8,16-42.4,16-42.4s3.2-8.8,5.6-14.4l2.4,13.6c0,0,8,36,9.6,44h-33.6V276.4z"/><path style="fill:#3C58BF;" d="M111.2,281.2l-4-20.8c-7.2-24-30.4-50.4-56-63.2l36,128h43.2l64.8-144H152L111.2,281.2z"/><path style="fill:#293688;" d="M111.2,281.2l-4-20.8c-7.2-24-30.4-50.4-56-63.2l36,128h43.2l64.8-144H160L111.2,281.2z"/><path style="fill:#FFBC00;" d="M0,180.4l7.2,1.6c51.2,12,86.4,42.4,100,78.4l-14.4-68c-2.4-9.6-9.6-12-18.4-12H0z"/><path style="fill:#F7981D;" d="M0,180.4L0,180.4c51.2,12,93.6,43.2,107.2,79.2l-13.6-56.8c-2.4-9.6-10.4-15.2-19.2-15.2L0,180.4z"/><path style="fill:#ED7C00;" d="M0,180.4L0,180.4c51.2,12,93.6,43.2,107.2,79.2l-9.6-31.2c-2.4-9.6-5.6-19.2-16.8-23.2L0,180.4z"/><g> <path style="fill:#051244;" d="M151.2,276.4L124,249.2l-12.8,30.4l-3.2-20c-7.2-24-30.4-50.4-56-63.2l36,128h43.2L151.2,276.4z"/> <polygon style="fill:#051244;" points="225.6,324.4 191.2,289.2 184.8,324.4 "/> <path style="fill:#051244;" d="M317.6,274.8L317.6,274.8c3.2,3.2,4.8,5.6,4,8.8c0,9.6-12.8,14.4-24,14.4c-16,0-24.8-2.4-38.4-8 l-5.6-2.4l-5.6,32.8c9.6,4,27.2,8,45.6,8c25.6,0,46.4-7.2,58.4-20L317.6,274.8z"/> <path style="fill:#051244;" d="M364,324.4h37.6l8-24h51.2l4.8,24H504L490.4,266l-48-46.4l2.4,12.8c0,0,8,36,9.6,44h-33.6 c3.2-8,16-42.4,16-42.4s3.2-8.8,5.6-14.4"/> </g></symbol><symbol id="mastercard" viewBox="0 0 504 504"><title>mastercard</title><path style="fill:#FFB600;" d="M504,252c0,83.2-67.2,151.2-151.2,151.2c-83.2,0-151.2-68-151.2-151.2l0,0 c0-83.2,67.2-151.2,150.4-151.2C436.8,100.8,504,168.8,504,252L504,252z"/><path style="fill:#F7981D;" d="M352.8,100.8c83.2,0,151.2,68,151.2,151.2l0,0c0,83.2-67.2,151.2-151.2,151.2 c-83.2,0-151.2-68-151.2-151.2"/><path style="fill:#FF8500;" d="M352.8,100.8c83.2,0,151.2,68,151.2,151.2l0,0c0,83.2-67.2,151.2-151.2,151.2"/><path style="fill:#FF5050;" d="M149.6,100.8C67.2,101.6,0,168.8,0,252s67.2,151.2,151.2,151.2c39.2,0,74.4-15.2,101.6-39.2l0,0l0,0 c5.6-4.8,10.4-10.4,15.2-16h-31.2c-4-4.8-8-10.4-11.2-15.2h53.6c3.2-4.8,6.4-10.4,8.8-16h-71.2c-2.4-4.8-4.8-10.4-6.4-16h83.2 c4.8-15.2,8-31.2,8-48c0-11.2-1.6-21.6-3.2-32h-92.8c0.8-5.6,2.4-10.4,4-16h83.2c-1.6-5.6-4-11.2-6.4-16H216 c2.4-5.6,5.6-10.4,8.8-16h53.6c-3.2-5.6-7.2-11.2-12-16h-29.6c4.8-5.6,9.6-10.4,15.2-15.2c-26.4-24.8-62.4-39.2-101.6-39.2 C150.4,100.8,150.4,100.8,149.6,100.8z"/><path style="fill:#E52836;" d="M0,252c0,83.2,67.2,151.2,151.2,151.2c39.2,0,74.4-15.2,101.6-39.2l0,0l0,0 c5.6-4.8,10.4-10.4,15.2-16h-31.2c-4-4.8-8-10.4-11.2-15.2h53.6c3.2-4.8,6.4-10.4,8.8-16h-71.2c-2.4-4.8-4.8-10.4-6.4-16h83.2 c4.8-15.2,8-31.2,8-48c0-11.2-1.6-21.6-3.2-32h-92.8c0.8-5.6,2.4-10.4,4-16h83.2c-1.6-5.6-4-11.2-6.4-16H216 c2.4-5.6,5.6-10.4,8.8-16h53.6c-3.2-5.6-7.2-11.2-12-16h-29.6c4.8-5.6,9.6-10.4,15.2-15.2c-26.4-24.8-62.4-39.2-101.6-39.2h-0.8"/><path style="fill:#CB2026;" d="M151.2,403.2c39.2,0,74.4-15.2,101.6-39.2l0,0l0,0c5.6-4.8,10.4-10.4,15.2-16h-31.2 c-4-4.8-8-10.4-11.2-15.2h53.6c3.2-4.8,6.4-10.4,8.8-16h-71.2c-2.4-4.8-4.8-10.4-6.4-16h83.2c4.8-15.2,8-31.2,8-48 c0-11.2-1.6-21.6-3.2-32h-92.8c0.8-5.6,2.4-10.4,4-16h83.2c-1.6-5.6-4-11.2-6.4-16H216c2.4-5.6,5.6-10.4,8.8-16h53.6 c-3.2-5.6-7.2-11.2-12-16h-29.6c4.8-5.6,9.6-10.4,15.2-15.2c-26.4-24.8-62.4-39.2-101.6-39.2h-0.8"/><g> <path style="fill:#FFFFFF;" d="M204.8,290.4l2.4-13.6c-0.8,0-2.4,0.8-4,0.8c-5.6,0-6.4-3.2-5.6-4.8l4.8-28h8.8l2.4-15.2h-8l1.6-9.6 h-16c0,0-9.6,52.8-9.6,59.2c0,9.6,5.6,13.6,12.8,13.6C199.2,292.8,203.2,291.2,204.8,290.4z"/> <path style="fill:#FFFFFF;" d="M210.4,264.8c0,22.4,15.2,28,28,28c12,0,16.8-2.4,16.8-2.4l3.2-15.2c0,0-8.8,4-16.8,4 c-17.6,0-14.4-12.8-14.4-12.8H260c0,0,2.4-10.4,2.4-14.4c0-10.4-5.6-23.2-23.2-23.2C222.4,227.2,210.4,244.8,210.4,264.8z M238.4,241.6c8.8,0,7.2,10.4,7.2,11.2H228C228,252,229.6,241.6,238.4,241.6z"/> <path style="fill:#FFFFFF;" d="M340,290.4l3.2-17.6c0,0-8,4-13.6,4c-11.2,0-16-8.8-16-18.4c0-19.2,9.6-29.6,20.8-29.6 c8,0,14.4,4.8,14.4,4.8l2.4-16.8c0,0-9.6-4-18.4-4c-18.4,0-36.8,16-36.8,46.4c0,20,9.6,33.6,28.8,33.6 C331.2,292.8,340,290.4,340,290.4z"/> <path style="fill:#FFFFFF;" d="M116.8,227.2c-11.2,0-19.2,3.2-19.2,3.2L95.2,244c0,0,7.2-3.2,17.6-3.2c5.6,0,10.4,0.8,10.4,5.6 c0,3.2-0.8,4-0.8,4s-4.8,0-7.2,0c-13.6,0-28.8,5.6-28.8,24c0,14.4,9.6,17.6,15.2,17.6c11.2,0,16-7.2,16.8-7.2l-0.8,6.4H132l6.4-44 C138.4,228,122.4,227.2,116.8,227.2z M120,263.2c0,2.4-1.6,15.2-11.2,15.2c-4.8,0-6.4-4-6.4-6.4c0-4,2.4-9.6,14.4-9.6 C119.2,263.2,120,263.2,120,263.2z"/> <path style="fill:#FFFFFF;" d="M153.6,292c4,0,24,0.8,24-20.8c0-20-19.2-16-19.2-24c0-4,3.2-5.6,8.8-5.6c2.4,0,11.2,0.8,11.2,0.8 l2.4-14.4c0,0-5.6-1.6-15.2-1.6c-12,0-24,4.8-24,20.8c0,18.4,20,16.8,20,24c0,4.8-5.6,5.6-9.6,5.6c-7.2,0-14.4-2.4-14.4-2.4 l-2.4,14.4C136,290.4,140,292,153.6,292z"/> <path style="fill:#FFFFFF;" d="M472.8,214.4l-3.2,21.6c0,0-6.4-8-15.2-8c-14.4,0-27.2,17.6-27.2,38.4c0,12.8,6.4,26.4,20,26.4 c9.6,0,15.2-6.4,15.2-6.4l-0.8,5.6h16l12-76.8L472.8,214.4z M465.6,256.8c0,8.8-4,20-12.8,20c-5.6,0-8.8-4.8-8.8-12.8 c0-12.8,5.6-20.8,12.8-20.8C462.4,243.2,465.6,247.2,465.6,256.8z"/> <path style="fill:#FFFFFF;" d="M29.6,291.2l9.6-57.6l1.6,57.6H52l20.8-57.6L64,291.2h16.8l12.8-76.8H67.2l-16,47.2l-0.8-47.2H27.2 l-12.8,76.8H29.6z"/> <path style="fill:#FFFFFF;" d="M277.6,291.2c4.8-26.4,5.6-48,16.8-44c1.6-10.4,4-14.4,5.6-18.4c0,0-0.8,0-3.2,0 c-7.2,0-12.8,9.6-12.8,9.6l1.6-8.8h-15.2L260,292h17.6V291.2z"/> <path style="fill:#FFFFFF;" d="M376.8,227.2c-11.2,0-19.2,3.2-19.2,3.2l-2.4,13.6c0,0,7.2-3.2,17.6-3.2c5.6,0,10.4,0.8,10.4,5.6 c0,3.2-0.8,4-0.8,4s-4.8,0-7.2,0c-13.6,0-28.8,5.6-28.8,24c0,14.4,9.6,17.6,15.2,17.6c11.2,0,16-7.2,16.8-7.2l-0.8,6.4H392l6.4-44 C399.2,228,382.4,227.2,376.8,227.2z M380.8,263.2c0,2.4-1.6,15.2-11.2,15.2c-4.8,0-6.4-4-6.4-6.4c0-4,2.4-9.6,14.4-9.6 C380,263.2,380,263.2,380.8,263.2z"/> <path style="fill:#FFFFFF;" d="M412,291.2c4.8-26.4,5.6-48,16.8-44c1.6-10.4,4-14.4,5.6-18.4c0,0-0.8,0-3.2,0 c-7.2,0-12.8,9.6-12.8,9.6l1.6-8.8h-15.2L394.4,292H412V291.2z"/> </g><g> <path style="fill:#DCE5E5;" d="M180,279.2c0,9.6,5.6,13.6,12.8,13.6c5.6,0,10.4-1.6,12-2.4l2.4-13.6c-0.8,0-2.4,0.8-4,0.8 c-5.6,0-6.4-3.2-5.6-4.8l4.8-28h8.8l2.4-15.2h-8l1.6-9.6"/> <path style="fill:#DCE5E5;" d="M218.4,264.8c0,22.4,7.2,28,20,28c12,0,16.8-2.4,16.8-2.4l3.2-15.2c0,0-8.8,4-16.8,4 c-17.6,0-14.4-12.8-14.4-12.8H260c0,0,2.4-10.4,2.4-14.4c0-10.4-5.6-23.2-23.2-23.2C222.4,227.2,218.4,244.8,218.4,264.8z M238.4,241.6c8.8,0,10.4,10.4,10.4,11.2H228C228,252,229.6,241.6,238.4,241.6z"/> <path style="fill:#DCE5E5;" d="M340,290.4l3.2-17.6c0,0-8,4-13.6,4c-11.2,0-16-8.8-16-18.4c0-19.2,9.6-29.6,20.8-29.6 c8,0,14.4,4.8,14.4,4.8l2.4-16.8c0,0-9.6-4-18.4-4c-18.4,0-28.8,16-28.8,46.4c0,20,1.6,33.6,20.8,33.6 C331.2,292.8,340,290.4,340,290.4z"/> <path style="fill:#DCE5E5;" d="M95.2,244.8c0,0,7.2-3.2,17.6-3.2c5.6,0,10.4,0.8,10.4,5.6c0,3.2-0.8,4-0.8,4s-4.8,0-7.2,0 c-13.6,0-28.8,5.6-28.8,24c0,14.4,9.6,17.6,15.2,17.6c11.2,0,16-7.2,16.8-7.2l-0.8,6.4H132l6.4-44c0-18.4-16-19.2-22.4-19.2 M128,263.2c0,2.4-9.6,15.2-19.2,15.2c-4.8,0-6.4-4-6.4-6.4c0-4,2.4-9.6,14.4-9.6C119.2,263.2,128,263.2,128,263.2z"/> <path style="fill:#DCE5E5;" d="M136,290.4c0,0,4.8,1.6,18.4,1.6c4,0,24,0.8,24-20.8c0-20-19.2-16-19.2-24c0-4,3.2-5.6,8.8-5.6 c2.4,0,11.2,0.8,11.2,0.8l2.4-14.4c0,0-5.6-1.6-15.2-1.6c-12,0-16,4.8-16,20.8c0,18.4,12,16.8,12,24c0,4.8-5.6,5.6-9.6,5.6"/> <path style="fill:#DCE5E5;" d="M469.6,236c0,0-6.4-8-15.2-8c-14.4,0-19.2,17.6-19.2,38.4c0,12.8-1.6,26.4,12,26.4 c9.6,0,15.2-6.4,15.2-6.4l-0.8,5.6h16l12-76.8 M468.8,256.8c0,8.8-7.2,20-16,20c-5.6,0-8.8-4.8-8.8-12.8c0-12.8,5.6-20.8,12.8-20.8 C462.4,243.2,468.8,247.2,468.8,256.8z"/> <path style="fill:#DCE5E5;" d="M29.6,291.2l9.6-57.6l1.6,57.6H52l20.8-57.6L64,291.2h16.8l12.8-76.8h-20l-22.4,47.2l-0.8-47.2h-8.8 l-27.2,76.8H29.6z"/> <path style="fill:#DCE5E5;" d="M260.8,291.2h16.8c4.8-26.4,5.6-48,16.8-44c1.6-10.4,4-14.4,5.6-18.4c0,0-0.8,0-3.2,0 c-7.2,0-12.8,9.6-12.8,9.6l1.6-8.8"/> <path style="fill:#DCE5E5;" d="M355.2,244.8c0,0,7.2-3.2,17.6-3.2c5.6,0,10.4,0.8,10.4,5.6c0,3.2-0.8,4-0.8,4s-4.8,0-7.2,0 c-13.6,0-28.8,5.6-28.8,24c0,14.4,9.6,17.6,15.2,17.6c11.2,0,16-7.2,16.8-7.2l-0.8,6.4H392l6.4-44c0-18.4-16-19.2-22.4-19.2 M388,263.2c0,2.4-9.6,15.2-19.2,15.2c-4.8,0-6.4-4-6.4-6.4c0-4,2.4-9.6,14.4-9.6C380,263.2,388,263.2,388,263.2z"/> <path style="fill:#DCE5E5;" d="M395.2,291.2H412c4.8-26.4,5.6-48,16.8-44c1.6-10.4,4-14.4,5.6-18.4c0,0-0.8,0-3.2,0 c-7.2,0-12.8,9.6-12.8,9.6l1.6-8.8"/> </g></symbol><symbol id="paypal" viewBox="0 0 469.351 469.351"><title>paypal</title><path style="fill:#03A9F4;" d="M356.626,85.086c-10.332-9.837-25.314-13.036-38.763-8.277c-3.803,1.271-6.573,4.568-7.168,8.533 l-2.987,20.523c-4.529,30.998-31.052,54.019-62.379,54.144h-42.667c-4.896,0.001-9.162,3.335-10.347,8.085l-32,128 c-1.426,5.716,2.052,11.505,7.768,12.931c0.843,0.21,1.709,0.317,2.578,0.317h53.333c4.896-0.001,9.162-3.335,10.347-8.085 l19.307-77.248h41.6c31.934,0.106,59.792-21.66,67.413-52.672l7.872-31.552C376.075,120.377,370.763,99.49,356.626,85.086z"/><g> <path style="fill:#283593;" d="M10.664,437.342C4.773,437.341-0.002,432.564,0,426.673c0-0.869,0.107-1.735,0.317-2.578 l10.667-42.453v-0.448l10.667-42.432c1.185-4.75,5.451-8.084,10.347-8.085h27.136c14.728-0.003,26.669,11.933,26.673,26.661 c0,2.181-0.267,4.354-0.795,6.47l-2.667,10.667c-2.967,11.875-13.637,20.205-25.877,20.203H29.672l-8.64,34.581 C19.845,434.015,15.567,437.351,10.664,437.342z M35.005,373.342h21.461c2.447-0.007,4.575-1.678,5.163-4.053l2.667-10.667 c0.731-2.841-0.981-5.737-3.822-6.467c-0.438-0.113-0.888-0.169-1.341-0.167H40.338L35.005,373.342z"/> <path style="fill:#283593;" d="M124.733,437.342h-15.189c-16.33,0.004-29.571-13.231-29.575-29.561 c-0.001-2.419,0.296-4.829,0.882-7.175l0,0l1.408-5.675c3.157-12.736,14.612-21.662,27.733-21.611h15.189 c16.33,0.028,29.545,13.289,29.517,29.619c-0.004,2.407-0.302,4.804-0.887,7.138l-1.408,5.675 C149.243,428.457,137.824,437.366,124.733,437.342z M101.565,405.79c-1.096,4.414,1.594,8.88,6.008,9.976 c0.645,0.16,1.306,0.241,1.971,0.243h15.189c3.289,0.009,6.159-2.227,6.955-5.419l1.408-5.675c1.096-4.414-1.594-8.88-6.008-9.976 c-0.645-0.16-1.306-0.241-1.971-0.243h-15.189c-3.289-0.009-6.159,2.227-6.955,5.419L101.565,405.79z"/> <path style="fill:#283593;" d="M138.664,437.342c-5.891-0.002-10.665-4.779-10.664-10.67c0-0.869,0.107-1.735,0.317-2.578 l10.667-42.667c1.426-5.72,7.218-9.202,12.939-7.776c5.72,1.426,9.202,7.218,7.776,12.939l-10.667,42.667 C147.845,434.015,143.567,437.351,138.664,437.342z"/> </g><g> <path style="fill:#03A9F4;" d="M266.664,437.342c-5.891-0.002-10.665-4.779-10.664-10.67c0-0.869,0.107-1.735,0.317-2.578 l10.667-42.453v-0.448l10.667-42.432c1.185-4.75,5.451-8.084,10.347-8.085h27.136c14.728-0.003,26.669,11.933,26.673,26.661 c0,2.181-0.267,4.354-0.795,6.47l-2.667,10.667c-2.967,11.875-13.637,20.205-25.877,20.203h-26.795l-8.64,34.581 C275.845,434.015,271.567,437.351,266.664,437.342z M291.005,373.342h21.483c2.447-0.007,4.575-1.678,5.163-4.053l2.667-10.667 c0.73-2.841-0.981-5.737-3.822-6.467c-0.438-0.113-0.889-0.169-1.341-0.167h-18.816L291.005,373.342z"/> <path style="fill:#03A9F4;" d="M380.733,437.342h-15.189c-16.33,0.004-29.571-13.231-29.575-29.561 c-0.001-2.419,0.296-4.829,0.882-7.175l0,0l1.408-5.675c3.157-12.736,14.612-21.662,27.733-21.611h15.189 c16.33-0.004,29.571,13.231,29.575,29.561c0.001,2.419-0.296,4.829-0.882,7.175l-1.408,5.675 C405.309,428.467,393.854,437.393,380.733,437.342z M357.565,405.79c-1.096,4.414,1.594,8.88,6.008,9.976 c0.645,0.16,1.306,0.241,1.971,0.243h15.189c3.289,0.009,6.159-2.227,6.955-5.419l1.408-5.675c1.096-4.414-1.594-8.88-6.008-9.976 c-0.645-0.16-1.306-0.241-1.971-0.243h-15.189c-3.289-0.009-6.159,2.227-6.955,5.419L357.565,405.79z"/> <path style="fill:#03A9F4;" d="M394.664,437.342c-5.891-0.002-10.665-4.779-10.664-10.67c0-0.869,0.107-1.735,0.317-2.578 l10.667-42.667c1.426-5.72,7.218-9.202,12.939-7.776c5.72,1.426,9.202,7.218,7.776,12.939l0,0l-10.667,42.667 C403.845,434.015,399.567,437.351,394.664,437.342z"/> </g><g> <path style="fill:#283593;" d="M202.664,426.676c-3.568-0.002-6.898-1.787-8.875-4.757l-21.333-32 c-3.27-4.901-1.947-11.525,2.955-14.795s11.525-1.947,14.795,2.955l21.333,32c3.275,4.897,1.961,11.521-2.935,14.797 C206.846,426.051,204.778,426.677,202.664,426.676z"/> <path style="fill:#283593;" d="M181.33,458.676c-5.891-0.002-10.665-4.78-10.663-10.671c0.001-2.493,0.875-4.907,2.471-6.823 l53.333-64c3.776-4.524,10.505-5.131,15.029-1.355c4.524,3.776,5.131,10.505,1.355,15.029l0,0l-53.333,64 C187.493,457.281,184.492,458.68,181.33,458.676z"/> </g><path style="fill:#03A9F4;" d="M437.33,437.342c-5.891-0.002-10.665-4.779-10.664-10.67c0-0.869,0.107-1.735,0.317-2.578 l21.333-85.333c1.426-5.72,7.218-9.202,12.939-7.776c5.72,1.426,9.202,7.218,7.776,12.939l0,0l-21.333,85.333 C446.512,434.015,442.234,437.351,437.33,437.342z"/><path style="fill:#283593;" d="M321.405,29.129c-10.249-11.739-25.077-18.468-40.661-18.453H159.997 c-5.159,0-9.578,3.692-10.496,8.768L106.834,254.11c-1.049,5.797,2.801,11.346,8.598,12.395c0.626,0.113,1.262,0.17,1.898,0.17h64 c4.896-0.001,9.162-3.335,10.347-8.085l19.328-77.248h34.325c41.958-0.165,77.478-31.012,83.52-72.533l5.333-36.459l0,0 C336.382,56.773,331.721,41.007,321.405,29.129z"/></symbol><symbol id="down-arrow" viewBox="0 0 515.556 515.556"><title>down-arrow</title><path d="m257.778 386.671-257.778-257.778h128.886l128.892 128.889 128.886-128.897 128.892.008z"/></symbol></svg>